# xmcd
#
# Track frame offsets: 
#        150
#        16425
#        37725
#        56775
#        70725
#        87000
#        112350
#        128100
#        145950
#        161400
#        180300
#        200076
#        220740
#        236391
#
# Disc length: 3490 seconds
#
# Revision: 0
# Processed by: cddbd v1.5.2PL0 Copyright (c) Steve Scherf et al.
# Submitted via: ExactAudioCopy v0.99pb3
#
DISCID=c00da00e
DTITLE=Ireneusz Dudek - Nowa Plyta
DYEAR=2006
DGENRE=Blues Rock, Boogie, Neo Swing, Rock'n'Roll
TTITLE0=Marsz Aktywistow
TTITLE1=10 m2
TTITLE2=Tak Latwo
TTITLE3=Paragraf 22
TTITLE4=Byle Co, Byle Jak
TTITLE5=A Jezeli Moj Dobry Boze
TTITLE6=Kameralny Blues
TTITLE7=Na Prawo Marsz, Na Lewo Zwrot
TTITLE8=Wake - Up This Morning
TTITLE9=Wiem W Co Gram
TTITLE10=Kameralny Blues
TTITLE11=From Alojz To Alex
TTITLE12=Tell Me Pretty Baby
TTITLE13=Gloria
EXTD=
EXTT0=
EXTT1=
EXTT2=
EXTT3=
EXTT4=
EXTT5=
EXTT6=
EXTT7=
EXTT8=
EXTT9=
EXTT10=
EXTT11=
EXTT12=
EXTT13=
PLAYORDER=
